<svg xmlns="http://www.w3.org/2000/svg" width="79.307" height="82" viewBox="0 0 79.307 82">
  <path id="Path_6" data-name="Path 6" d="M24.142,0V7.528H8.05V19.889A16.127,16.127,0,0,0,24.159,36H26.25A23.557,23.557,0,0,0,42.744,49.314v10.1H36.972a3.23,3.23,0,0,0-3.228,3.228v4.232H28.793V82H66.6V66.878H61.663V62.646a3.23,3.23,0,0,0-3.228-3.228H52.663v-10.1A23.6,23.6,0,0,0,69.157,36h2.091A16.127,16.127,0,0,0,87.357,19.889V7.528H71.248V0Zm0,27.852A7.953,7.953,0,0,1,16.2,19.906V15.691h7.946c0,11.141.017,11.659.05,12.161Zm34.242-6.691L53.55,25.242l1.522,6.139a1.325,1.325,0,0,1-1.991,1.439l-5.37-3.346-5.37,3.346a1.325,1.325,0,0,1-1.991-1.439l1.522-6.139-4.834-4.082a1.329,1.329,0,0,1,.753-2.342l6.306-.452,2.392-5.855a1.327,1.327,0,0,1,2.459,0l2.392,5.855,6.306.452A1.33,1.33,0,0,1,58.384,21.161Zm20.809-5.47v4.215a7.953,7.953,0,0,1-7.946,7.946H71.2c.033-.5.05-1.02.05-1.539V15.691Z" transform="translate(-8.05)" fill="rgba(222,222,222,0.3)"/>
</svg>
