<svg xmlns="http://www.w3.org/2000/svg" width="118" height="67.2" viewBox="0 0 118 67.2">
  <g id="Flag_Icon" data-name="Flag Icon" transform="translate(212 224)">
    <path id="Path_7" data-name="Path 7" d="M10.063,158.275a5.447,5.447,0,0,0,3.361,2.557,5.288,5.288,0,0,0,1.315.166,5.149,5.149,0,0,0,2.608-.724l0,.006a39.5,39.5,0,0,0,13.826-12.518c4.663-6.98,15.749-9.356,20.931-10.1l3.16,5.475L36.863,175.025a3.233,3.233,0,1,0,5.6,3.234L59,149.6l16.54,28.655a3.233,3.233,0,0,0,5.6-3.234L62.737,143.138l3.16-5.477c5.182.748,16.269,3.124,20.931,10.1a39.458,39.458,0,0,0,13.824,12.518l0-.006a5.157,5.157,0,0,0,2.608.724,5.307,5.307,0,0,0,1.317-.166,5.448,5.448,0,0,0,3.358-2.557l9.414-16.521a3.956,3.956,0,0,0,.405-3.507,4.634,4.634,0,0,0-3.1-2.569c-4.568-1.427-9.873-3.6-14.6-8.9l-.8.718.748-.778c-.535-.513-12.044-11.418-22.3-12.016a3.191,3.191,0,0,0-1.369-1.6,3.238,3.238,0,0,0-4.419,1.184L59,136.673,46.082,114.291a3.235,3.235,0,0,0-4.417-1.184,3.191,3.191,0,0,0-1.369,1.6c-10.252.588-21.766,11.507-22.3,12.02l.748.778-.8-.718c-4.725,5.3-10.03,7.472-14.6,8.9a4.629,4.629,0,0,0-3.1,2.569,3.928,3.928,0,0,0,.405,3.507Z" transform="translate(-212 -336.675)" fill="#f5f5f5"/>
  </g>
</svg>
